<svg width="29" height="28" viewBox="0 0 29 28" fill="none" xmlns="http://www.w3.org/2000/svg">
<rect x="0.5" width="28" height="28" rx="14" fill="#ED2227"/>
<path d="M20.3594 10.3984L16.2578 14.5L20.3594 18.6406C20.8672 19.1094 20.8672 19.9297 20.3594 20.3984C19.8906 20.9062 19.0703 20.9062 18.6016 20.3984L14.5 16.2969L10.3594 20.3984C9.89062 20.9062 9.07031 20.9062 8.60156 20.3984C8.09375 19.9297 8.09375 19.1094 8.60156 18.6406L12.7031 14.5L8.60156 10.3984C8.09375 9.92969 8.09375 9.10938 8.60156 8.64062C9.07031 8.13281 9.89062 8.13281 10.3594 8.64062L14.5 12.7422L18.6016 8.64062C19.0703 8.13281 19.8906 8.13281 20.3594 8.64062C20.8672 9.10938 20.8672 9.92969 20.3594 10.3984Z" fill="white"/>
</svg>
